<svg width="96" height="88" viewBox="0 0 96 88" fill="none" xmlns="http://www.w3.org/2000/svg">
<path d="M91.68 0.0625C82.5277 0.0625 72.2151 5.225 61.1292 15.3312C53.3519 22.4187 46.6917 30.5125 42.0941 36.6375C38.2377 35.4424 34.1601 35.1831 30.1876 35.8803C26.2151 36.5775 22.4581 38.2119 19.2173 40.6527C15.9765 43.0935 13.3418 46.2729 11.5243 49.9364C9.70674 53.5998 8.75673 57.6456 8.75031 61.75C8.75031 75.4 1.78937 81.4812 1.44562 81.7875C0.885824 82.228 0.479434 82.8395 0.286097 83.5325C0.0927604 84.2254 0.122658 84.9632 0.371403 85.6375C0.591169 86.3296 1.02236 86.932 1.60209 87.357C2.18181 87.782 2.87974 88.0073 3.59406 88H34.5316C38.5626 87.9935 42.5362 87.0262 46.1343 85.1756C49.7323 83.325 52.8549 80.6424 55.2521 77.3427C57.6493 74.043 59.2545 70.2177 59.9393 66.173C60.6241 62.1283 60.3694 57.9765 59.1956 54.05C65.2112 49.3687 73.1605 42.5875 80.1214 34.6687C90.0472 23.3812 95.1175 12.8812 95.1175 3.5625C95.1175 2.63424 94.7553 1.744 94.1107 1.08763C93.466 0.431249 92.5917 0.0625 91.68 0.0625ZM48.4534 39.7C49.6995 38.0812 51.1605 36.2437 52.8363 34.2312C56.2756 36.5956 59.2368 39.6106 61.5589 43.1125C59.5823 44.8187 57.7777 46.3062 56.1878 47.575C54.1989 44.4118 51.5602 41.7251 48.4534 39.7ZM66.7581 38.4312C64.1872 34.7633 61.0364 31.5551 57.4339 28.9375C65.8558 19.6625 77.1995 9.5125 87.8558 7.45625C85.8363 18.3062 75.8675 29.8562 66.7581 38.4312Z" fill="#FF7F8C"/>
</svg>
