<svg width="15" height="18" viewBox="0 0 15 18" fill="none" xmlns="http://www.w3.org/2000/svg">
<path d="M11.9755 6.10783L10.3855 6.10751L10.3865 1.10751C10.3866 0.557508 9.93672 0.107416 9.38672 0.107304L5.38672 0.106488C4.83672 0.106376 4.38663 0.556284 4.38651 1.10628L4.3855 6.10628L2.7955 6.10596C1.9055 6.10578 1.45528 7.18569 2.08515 7.81582L6.67421 12.4068C7.06413 12.7968 7.69413 12.797 8.08421 12.407L12.6751 7.81797C13.3053 7.1881 12.8655 6.10801 11.9755 6.10783ZM0.383457 16.1055C0.383344 16.6555 0.833253 17.1056 1.38325 17.1057L13.3833 17.1081C13.9333 17.1082 14.3833 16.6583 14.3835 16.1083C14.3836 15.5583 13.9337 15.1082 13.3837 15.1081L1.38366 15.1057C0.83366 15.1056 0.383569 15.5555 0.383457 16.1055Z" fill="white"/>
</svg>
