<svg width="101" height="99" viewBox="0 0 101 99" fill="none" xmlns="http://www.w3.org/2000/svg">
<path d="M42.0833 86.6514H23.1458C16.7632 86.6514 11.3106 84.4857 6.78804 80.1545C2.26268 75.8232 0 70.5295 0 64.2732C0 58.9107 1.64826 54.1326 4.94479 49.9389C8.24132 45.7451 12.5549 43.0639 17.8854 41.8951C19.6389 35.5701 23.1458 30.4482 28.4063 26.5295C33.6667 22.6107 39.6285 20.6514 46.2917 20.6514C54.4979 20.6514 61.4585 23.4522 67.1734 29.054C72.8911 34.6585 75.75 41.4826 75.75 49.5264C80.5896 50.0764 84.6057 52.121 87.7985 55.6602C90.9884 59.2022 92.5833 63.3451 92.5833 68.0889C92.5833 73.2451 90.7429 77.6286 87.062 81.2394C83.3783 84.8474 78.9062 86.6514 73.6458 86.6514H50.5V57.1576L57.2333 63.5514L63.125 57.7764L46.2917 41.2764L29.4583 57.7764L35.35 63.5514L42.0833 57.1576V86.6514Z" fill="#6E56FF"/>
</svg>
