<svg width="538" height="205" viewBox="0 0 538 205" fill="none" xmlns="http://www.w3.org/2000/svg">
<rect x="0.746094" y="0.108398" width="537" height="204" rx="20" fill="#6B6B6B"/>
<path d="M270.336 94.1084H263.246L269.246 88.1084L271.126 89.9884C271.746 89.0084 272.606 88.2084 273.646 87.7084L275.246 86.1084V87.1984C275.576 87.1484 275.906 87.1084 276.246 87.1084C276.586 87.1084 276.916 87.1484 277.246 87.1984V82.1084L271.246 76.1084H263.246C262.136 76.1084 261.246 76.9984 261.246 78.1084V94.1084C261.246 94.6388 261.457 95.1475 261.832 95.5226C262.207 95.8977 262.716 96.1084 263.246 96.1084H271.056C270.706 95.4984 270.456 94.8284 270.336 94.1084ZM270.246 77.6084L275.746 83.1084H270.246V77.6084ZM265.246 83.1084C265.777 83.1084 266.285 83.3191 266.66 83.6942C267.035 84.0693 267.246 84.578 267.246 85.1084C267.246 85.6388 267.035 86.1475 266.66 86.5226C266.285 86.8977 265.777 87.1084 265.246 87.1084C264.136 87.1084 263.246 86.2184 263.246 85.1084C263.246 83.9984 264.146 83.1084 265.246 83.1084ZM277.246 89.1084V92.1084H280.246V94.1084H277.246V97.1084H275.246V94.1084H272.246V92.1084H275.246V89.1084H277.246Z" fill="#B6B6B6"/>
<path d="M218.17 126.252C217.594 126.252 217.07 126.14 216.598 125.916C216.134 125.684 215.762 125.328 215.482 124.848C215.202 124.368 215.062 123.756 215.062 123.012V117.708H216.07V123.024C216.07 123.84 216.266 124.432 216.658 124.8C217.05 125.168 217.562 125.352 218.194 125.352C218.826 125.352 219.334 125.168 219.718 124.8C220.102 124.432 220.294 123.84 220.294 123.024V117.708H221.302V123.012C221.302 123.756 221.162 124.368 220.882 124.848C220.602 125.328 220.226 125.684 219.754 125.916C219.282 126.14 218.754 126.252 218.17 126.252ZM222.949 128.748V120.156H223.861L223.957 121.14C224.149 120.852 224.421 120.592 224.773 120.36C225.133 120.128 225.589 120.012 226.141 120.012C226.733 120.012 227.249 120.148 227.689 120.42C228.129 120.692 228.469 121.064 228.709 121.536C228.957 122.008 229.081 122.544 229.081 123.144C229.081 123.744 228.957 124.28 228.709 124.752C228.469 125.216 228.125 125.584 227.677 125.856C227.237 126.12 226.721 126.252 226.129 126.252C225.641 126.252 225.205 126.152 224.821 125.952C224.445 125.752 224.157 125.472 223.957 125.112V128.748H222.949ZM226.021 125.376C226.421 125.376 226.773 125.284 227.077 125.1C227.381 124.908 227.621 124.644 227.797 124.308C227.973 123.972 228.061 123.58 228.061 123.132C228.061 122.684 227.973 122.292 227.797 121.956C227.621 121.62 227.381 121.36 227.077 121.176C226.773 120.984 226.421 120.888 226.021 120.888C225.621 120.888 225.269 120.984 224.965 121.176C224.661 121.36 224.421 121.62 224.245 121.956C224.069 122.292 223.981 122.684 223.981 123.132C223.981 123.58 224.069 123.972 224.245 124.308C224.421 124.644 224.661 124.908 224.965 125.1C225.269 125.284 225.621 125.376 226.021 125.376ZM230.484 126.108V117.468H231.492V126.108H230.484ZM235.856 126.252C235.296 126.252 234.792 126.124 234.344 125.868C233.896 125.612 233.54 125.252 233.276 124.788C233.02 124.316 232.892 123.764 232.892 123.132C232.892 122.5 233.024 121.952 233.288 121.488C233.552 121.016 233.908 120.652 234.356 120.396C234.812 120.14 235.32 120.012 235.88 120.012C236.44 120.012 236.944 120.14 237.392 120.396C237.84 120.652 238.192 121.016 238.448 121.488C238.712 121.952 238.844 122.5 238.844 123.132C238.844 123.764 238.712 124.316 238.448 124.788C238.184 125.252 237.824 125.612 237.368 125.868C236.92 126.124 236.416 126.252 235.856 126.252ZM235.856 125.388C236.2 125.388 236.52 125.304 236.816 125.136C237.112 124.968 237.352 124.716 237.536 124.38C237.72 124.044 237.812 123.628 237.812 123.132C237.812 122.636 237.72 122.22 237.536 121.884C237.36 121.548 237.124 121.296 236.828 121.128C236.532 120.96 236.216 120.876 235.88 120.876C235.536 120.876 235.216 120.96 234.92 121.128C234.624 121.296 234.384 121.548 234.2 121.884C234.016 122.22 233.924 122.636 233.924 123.132C233.924 123.628 234.016 124.044 234.2 124.38C234.384 124.716 234.62 124.968 234.908 125.136C235.204 125.304 235.52 125.388 235.856 125.388ZM242.226 126.252C241.73 126.252 241.318 126.168 240.99 126C240.662 125.832 240.418 125.608 240.258 125.328C240.098 125.048 240.018 124.744 240.018 124.416C240.018 123.808 240.25 123.34 240.714 123.012C241.178 122.684 241.81 122.52 242.61 122.52H244.218V122.448C244.218 121.928 244.082 121.536 243.81 121.272C243.538 121 243.174 120.864 242.718 120.864C242.326 120.864 241.986 120.964 241.698 121.164C241.418 121.356 241.242 121.64 241.17 122.016H240.138C240.178 121.584 240.322 121.22 240.57 120.924C240.826 120.628 241.142 120.404 241.518 120.252C241.894 120.092 242.294 120.012 242.718 120.012C243.55 120.012 244.174 120.236 244.59 120.684C245.014 121.124 245.226 121.712 245.226 122.448V126.108H244.326L244.266 125.04C244.098 125.376 243.85 125.664 243.522 125.904C243.202 126.136 242.77 126.252 242.226 126.252ZM242.382 125.4C242.766 125.4 243.094 125.3 243.366 125.1C243.646 124.9 243.858 124.64 244.002 124.32C244.146 124 244.218 123.664 244.218 123.312V123.3H242.694C242.102 123.3 241.682 123.404 241.434 123.612C241.194 123.812 241.074 124.064 241.074 124.368C241.074 124.68 241.186 124.932 241.41 125.124C241.642 125.308 241.966 125.4 242.382 125.4ZM249.438 126.252C248.846 126.252 248.326 126.116 247.878 125.844C247.438 125.572 247.094 125.2 246.846 124.728C246.606 124.256 246.486 123.72 246.486 123.12C246.486 122.52 246.61 121.988 246.858 121.524C247.106 121.052 247.45 120.684 247.89 120.42C248.33 120.148 248.85 120.012 249.45 120.012C249.938 120.012 250.37 120.112 250.746 120.312C251.122 120.512 251.414 120.792 251.622 121.152V117.468H252.63V126.108H251.718L251.622 125.124C251.43 125.412 251.154 125.672 250.794 125.904C250.434 126.136 249.982 126.252 249.438 126.252ZM249.546 125.376C249.946 125.376 250.298 125.284 250.602 125.1C250.914 124.908 251.154 124.644 251.322 124.308C251.498 123.972 251.586 123.58 251.586 123.132C251.586 122.684 251.498 122.292 251.322 121.956C251.154 121.62 250.914 121.36 250.602 121.176C250.298 120.984 249.946 120.888 249.546 120.888C249.154 120.888 248.802 120.984 248.49 121.176C248.186 121.36 247.946 121.62 247.77 121.956C247.602 122.292 247.518 122.684 247.518 123.132C247.518 123.58 247.602 123.972 247.77 124.308C247.946 124.644 248.186 124.908 248.49 125.1C248.802 125.284 249.154 125.376 249.546 125.376ZM260.161 126.252C259.601 126.252 259.097 126.124 258.649 125.868C258.201 125.612 257.845 125.252 257.581 124.788C257.325 124.316 257.197 123.764 257.197 123.132C257.197 122.5 257.329 121.952 257.593 121.488C257.857 121.016 258.213 120.652 258.661 120.396C259.117 120.14 259.625 120.012 260.185 120.012C260.745 120.012 261.249 120.14 261.697 120.396C262.145 120.652 262.497 121.016 262.753 121.488C263.017 121.952 263.149 122.5 263.149 123.132C263.149 123.764 263.017 124.316 262.753 124.788C262.489 125.252 262.129 125.612 261.673 125.868C261.225 126.124 260.721 126.252 260.161 126.252ZM260.161 125.388C260.505 125.388 260.825 125.304 261.121 125.136C261.417 124.968 261.657 124.716 261.841 124.38C262.025 124.044 262.117 123.628 262.117 123.132C262.117 122.636 262.025 122.22 261.841 121.884C261.665 121.548 261.429 121.296 261.133 121.128C260.837 120.96 260.521 120.876 260.185 120.876C259.841 120.876 259.521 120.96 259.225 121.128C258.929 121.296 258.689 121.548 258.505 121.884C258.321 122.22 258.229 122.636 258.229 123.132C258.229 123.628 258.321 124.044 258.505 124.38C258.689 124.716 258.925 124.968 259.213 125.136C259.509 125.304 259.825 125.388 260.161 125.388ZM264.551 126.108V120.156H265.463L265.547 121.296C265.731 120.904 266.011 120.592 266.387 120.36C266.763 120.128 267.227 120.012 267.779 120.012V121.068H267.503C267.151 121.068 266.827 121.132 266.531 121.26C266.235 121.38 265.999 121.588 265.823 121.884C265.647 122.18 265.559 122.588 265.559 123.108V126.108H264.551ZM274.786 126.252C274.194 126.252 273.674 126.116 273.226 125.844C272.786 125.572 272.442 125.2 272.194 124.728C271.954 124.256 271.834 123.72 271.834 123.12C271.834 122.52 271.958 121.988 272.206 121.524C272.454 121.052 272.798 120.684 273.238 120.42C273.678 120.148 274.198 120.012 274.798 120.012C275.286 120.012 275.718 120.112 276.094 120.312C276.47 120.512 276.762 120.792 276.97 121.152V117.468H277.978V126.108H277.066L276.97 125.124C276.778 125.412 276.502 125.672 276.142 125.904C275.782 126.136 275.33 126.252 274.786 126.252ZM274.894 125.376C275.294 125.376 275.646 125.284 275.95 125.1C276.262 124.908 276.502 124.644 276.67 124.308C276.846 123.972 276.934 123.58 276.934 123.132C276.934 122.684 276.846 122.292 276.67 121.956C276.502 121.62 276.262 121.36 275.95 121.176C275.646 120.984 275.294 120.888 274.894 120.888C274.502 120.888 274.15 120.984 273.838 121.176C273.534 121.36 273.294 121.62 273.118 121.956C272.95 122.292 272.866 122.684 272.866 123.132C272.866 123.58 272.95 123.972 273.118 124.308C273.294 124.644 273.534 124.908 273.838 125.1C274.15 125.284 274.502 125.376 274.894 125.376ZM279.621 126.108V120.156H280.533L280.617 121.296C280.801 120.904 281.081 120.592 281.457 120.36C281.833 120.128 282.297 120.012 282.849 120.012V121.068H282.573C282.221 121.068 281.897 121.132 281.601 121.26C281.305 121.38 281.069 121.588 280.893 121.884C280.717 122.18 280.629 122.588 280.629 123.108V126.108H279.621ZM285.96 126.252C285.464 126.252 285.052 126.168 284.724 126C284.396 125.832 284.152 125.608 283.992 125.328C283.832 125.048 283.752 124.744 283.752 124.416C283.752 123.808 283.984 123.34 284.448 123.012C284.912 122.684 285.544 122.52 286.344 122.52H287.952V122.448C287.952 121.928 287.816 121.536 287.544 121.272C287.272 121 286.908 120.864 286.452 120.864C286.06 120.864 285.72 120.964 285.432 121.164C285.152 121.356 284.976 121.64 284.904 122.016H283.872C283.912 121.584 284.056 121.22 284.304 120.924C284.56 120.628 284.876 120.404 285.252 120.252C285.628 120.092 286.028 120.012 286.452 120.012C287.284 120.012 287.908 120.236 288.324 120.684C288.748 121.124 288.96 121.712 288.96 122.448V126.108H288.06L288 125.04C287.832 125.376 287.584 125.664 287.256 125.904C286.936 126.136 286.504 126.252 285.96 126.252ZM286.116 125.4C286.5 125.4 286.828 125.3 287.1 125.1C287.38 124.9 287.592 124.64 287.736 124.32C287.88 124 287.952 123.664 287.952 123.312V123.3H286.428C285.836 123.3 285.416 123.404 285.168 123.612C284.928 123.812 284.808 124.064 284.808 124.368C284.808 124.68 284.92 124.932 285.144 125.124C285.376 125.308 285.7 125.4 286.116 125.4ZM292.825 124.236C292.489 124.236 292.181 124.192 291.901 124.104L291.301 124.668C291.389 124.732 291.497 124.788 291.625 124.836C291.761 124.876 291.953 124.916 292.201 124.956C292.449 124.988 292.797 125.024 293.245 125.064C294.045 125.12 294.617 125.304 294.961 125.616C295.305 125.928 295.477 126.336 295.477 126.84C295.477 127.184 295.381 127.512 295.189 127.824C295.005 128.136 294.717 128.392 294.325 128.592C293.941 128.792 293.445 128.892 292.837 128.892C292.301 128.892 291.825 128.82 291.409 128.676C290.993 128.54 290.669 128.328 290.437 128.04C290.205 127.76 290.089 127.404 290.089 126.972C290.089 126.748 290.149 126.504 290.269 126.24C290.389 125.984 290.613 125.74 290.941 125.508C290.765 125.436 290.613 125.36 290.485 125.28C290.365 125.192 290.253 125.096 290.149 124.992V124.716L291.169 123.708C290.697 123.308 290.461 122.78 290.461 122.124C290.461 121.732 290.553 121.376 290.737 121.056C290.921 120.736 291.189 120.484 291.541 120.3C291.893 120.108 292.321 120.012 292.825 120.012C293.169 120.012 293.481 120.06 293.761 120.156H295.957V120.912L294.841 120.96C295.073 121.296 295.189 121.684 295.189 122.124C295.189 122.516 295.093 122.872 294.901 123.192C294.717 123.512 294.449 123.768 294.097 123.96C293.753 124.144 293.329 124.236 292.825 124.236ZM292.825 123.408C293.249 123.408 293.585 123.3 293.833 123.084C294.089 122.86 294.217 122.54 294.217 122.124C294.217 121.716 294.089 121.404 293.833 121.188C293.585 120.964 293.249 120.852 292.825 120.852C292.393 120.852 292.049 120.964 291.793 121.188C291.545 121.404 291.421 121.716 291.421 122.124C291.421 122.54 291.545 122.86 291.793 123.084C292.049 123.3 292.393 123.408 292.825 123.408ZM291.073 126.876C291.073 127.276 291.241 127.572 291.577 127.764C291.913 127.964 292.333 128.064 292.837 128.064C293.333 128.064 293.729 127.956 294.025 127.74C294.329 127.524 294.481 127.236 294.481 126.876C294.481 126.62 294.377 126.396 294.169 126.204C293.961 126.02 293.577 125.912 293.017 125.88C292.577 125.848 292.197 125.808 291.877 125.76C291.549 125.936 291.333 126.124 291.229 126.324C291.125 126.532 291.073 126.716 291.073 126.876ZM300.269 126.108V117.468H301.277V121.176C301.477 120.808 301.761 120.524 302.129 120.324C302.497 120.116 302.897 120.012 303.329 120.012C304.017 120.012 304.569 120.228 304.985 120.66C305.401 121.084 305.609 121.74 305.609 122.628V126.108H304.613V122.736C304.613 121.496 304.113 120.876 303.113 120.876C302.593 120.876 302.157 121.064 301.805 121.44C301.453 121.808 301.277 122.336 301.277 123.024V126.108H300.269ZM309.813 126.252C309.245 126.252 308.741 126.124 308.301 125.868C307.861 125.604 307.513 125.24 307.257 124.776C307.009 124.312 306.885 123.764 306.885 123.132C306.885 122.508 307.009 121.964 307.257 121.5C307.505 121.028 307.849 120.664 308.289 120.408C308.737 120.144 309.253 120.012 309.837 120.012C310.413 120.012 310.909 120.144 311.325 120.408C311.749 120.664 312.073 121.004 312.297 121.428C312.521 121.852 312.633 122.308 312.633 122.796C312.633 122.884 312.629 122.972 312.621 123.06C312.621 123.148 312.621 123.248 312.621 123.36H307.881C307.905 123.816 308.009 124.196 308.193 124.5C308.385 124.796 308.621 125.02 308.901 125.172C309.189 125.324 309.493 125.4 309.813 125.4C310.229 125.4 310.577 125.304 310.857 125.112C311.137 124.92 311.341 124.66 311.469 124.332H312.465C312.305 124.884 311.997 125.344 311.541 125.712C311.093 126.072 310.517 126.252 309.813 126.252ZM309.813 120.864C309.333 120.864 308.905 121.012 308.529 121.308C308.161 121.596 307.949 122.02 307.893 122.58H311.637C311.613 122.044 311.429 121.624 311.085 121.32C310.741 121.016 310.317 120.864 309.813 120.864ZM313.969 126.108V120.156H314.881L314.965 121.296C315.149 120.904 315.429 120.592 315.805 120.36C316.181 120.128 316.645 120.012 317.197 120.012V121.068H316.921C316.569 121.068 316.245 121.132 315.949 121.26C315.653 121.38 315.417 121.588 315.241 121.884C315.065 122.18 314.977 122.588 314.977 123.108V126.108H313.969ZM320.781 126.252C320.213 126.252 319.709 126.124 319.269 125.868C318.829 125.604 318.481 125.24 318.225 124.776C317.977 124.312 317.853 123.764 317.853 123.132C317.853 122.508 317.977 121.964 318.225 121.5C318.473 121.028 318.817 120.664 319.257 120.408C319.705 120.144 320.221 120.012 320.805 120.012C321.381 120.012 321.877 120.144 322.293 120.408C322.717 120.664 323.041 121.004 323.265 121.428C323.489 121.852 323.601 122.308 323.601 122.796C323.601 122.884 323.597 122.972 323.589 123.06C323.589 123.148 323.589 123.248 323.589 123.36H318.849C318.873 123.816 318.977 124.196 319.161 124.5C319.353 124.796 319.589 125.02 319.869 125.172C320.157 125.324 320.461 125.4 320.781 125.4C321.197 125.4 321.545 125.304 321.825 125.112C322.105 124.92 322.309 124.66 322.437 124.332H323.433C323.273 124.884 322.965 125.344 322.509 125.712C322.061 126.072 321.485 126.252 320.781 126.252ZM320.781 120.864C320.301 120.864 319.873 121.012 319.497 121.308C319.129 121.596 318.917 122.02 318.861 122.58H322.605C322.581 122.044 322.397 121.624 322.053 121.32C321.709 121.016 321.285 120.864 320.781 120.864Z" fill="#B6B6B6"/>
</svg>
