<svg width="12" height="12" viewBox="0 0 12 12" fill="none" xmlns="http://www.w3.org/2000/svg">
<path fill-rule="evenodd" clip-rule="evenodd" d="M6.27681 0.94043C3.20509 0.94043 0.714844 3.37425 0.714844 6.37637C0.714844 9.37848 3.20509 11.8123 6.27681 11.8123C9.34854 11.8123 11.8388 9.37848 11.8388 6.37637C11.8388 3.37425 9.34854 0.94043 6.27681 0.94043ZM8.68767 5.4572C8.73207 5.4076 8.76586 5.34983 8.78708 5.28728C8.80829 5.22474 8.81649 5.15867 8.81119 5.09298C8.80589 5.02729 8.7872 4.9633 8.75623 4.90477C8.72525 4.84624 8.68261 4.79436 8.63082 4.75218C8.57902 4.70999 8.51912 4.67836 8.45463 4.65913C8.39014 4.63991 8.32237 4.63349 8.2553 4.64024C8.18823 4.64699 8.12322 4.66679 8.0641 4.69846C8.00498 4.73013 7.95293 4.77303 7.91102 4.82465L5.7368 7.37411L4.61176 6.27407C4.5164 6.18405 4.38867 6.13424 4.2561 6.13537C4.12352 6.13649 3.9967 6.18847 3.90296 6.28009C3.80921 6.37171 3.75603 6.49566 3.75488 6.62523C3.75373 6.7548 3.80469 6.87963 3.8968 6.97284L5.4137 8.45536C5.46338 8.50389 5.52286 8.54177 5.58835 8.56658C5.65384 8.5914 5.7239 8.6026 5.79407 8.59949C5.86424 8.59637 5.93297 8.57901 5.99589 8.54849C6.05881 8.51797 6.11453 8.47498 6.15951 8.42225L8.68767 5.4572Z" fill="#007AFF"/>
</svg>
