<svg width="102" height="32" viewBox="0 0 102 32" fill="none" xmlns="http://www.w3.org/2000/svg">
<path d="M12.5898 20.6182C10.9985 20.6182 9.47242 19.986 8.3472 18.8608C7.22198 17.7356 6.58984 16.2095 6.58984 14.6182C6.58984 13.0269 7.22198 11.5007 8.3472 10.3755C9.47242 9.25031 10.9985 8.61816 12.5898 8.61816C14.1811 8.61816 15.7073 9.25031 16.8325 10.3755C17.9577 11.5007 18.5898 13.0269 18.5898 14.6182C18.5898 16.2095 17.9577 17.7356 16.8325 18.8608C15.7073 19.986 14.1811 20.6182 12.5898 20.6182ZM11.5898 3.61816H13.5898V6.61816H11.5898V3.61816ZM11.5898 22.6182H13.5898V25.6182H11.5898V22.6182ZM4.10484 7.54716L5.51884 6.13316L7.63984 8.25416L6.22584 9.66816L4.10484 7.54716ZM17.5398 20.9822L18.9538 19.5682L21.0748 21.6892L19.6608 23.1032L17.5398 20.9822ZM19.6608 6.13216L21.0748 7.54716L18.9538 9.66816L17.5398 8.25416L19.6608 6.13316V6.13216ZM6.22584 19.5682L7.63984 20.9822L5.51884 23.1032L4.10484 21.6892L6.22584 19.5682ZM23.5898 13.6182V15.6182H20.5898V13.6182H23.5898ZM4.58984 13.6182V15.6182H1.58984V13.6182H4.58984Z" fill="white"/>
<path fill-rule="evenodd" clip-rule="evenodd" d="M44.2307 2.83248C45.493 2.75993 46.7539 2.76574 48.0163 2.76574C48.025 2.76574 54.4129 2.76574 54.4129 2.76574C55.6999 2.76574 56.9608 2.75993 58.2225 2.83248C59.3695 2.89777 60.4867 3.03707 61.5989 3.3483C63.9401 4.0027 65.9845 5.36952 67.4623 7.3073C68.9314 9.23276 69.7266 11.5899 69.7266 14.0101C69.7266 16.4332 68.9314 18.7889 67.4623 20.7144C65.9845 22.6514 63.9401 24.019 61.5989 24.6734C60.4867 24.9846 59.3695 25.1232 58.2225 25.1892C56.9608 25.2617 55.6999 25.2552 54.4376 25.2552C54.4289 25.2552 48.0395 25.2559 48.0395 25.2559C46.7539 25.2552 45.493 25.2617 44.2307 25.1892C43.0844 25.1232 41.9671 24.9846 40.855 24.6734C38.5138 24.019 36.4694 22.6514 34.9915 20.7144C33.5224 18.7889 32.7266 16.4332 32.7266 14.0108C32.7266 11.5899 33.5224 9.23276 34.9915 7.3073C36.4694 5.36952 38.5138 4.0027 40.855 3.3483C41.9671 3.03707 43.0844 2.89777 44.2307 2.83248Z" fill="white"/>
<g filter="url(#filter0_dd_344_55)">
<path fill-rule="evenodd" clip-rule="evenodd" d="M58.4816 23.8041C63.8908 23.8041 68.2757 19.4191 68.2757 14.0099C68.2757 8.6008 63.8908 4.21582 58.4816 4.21582C53.0725 4.21582 48.6875 8.6008 48.6875 14.0099C48.6875 19.4191 53.0725 23.8041 58.4816 23.8041Z" fill="url(#paint0_linear_344_55)"/>
</g>
<path d="M89.5898 5.61816C87.8098 5.61816 86.0698 6.14601 84.5897 7.13494C83.1097 8.12387 81.9561 9.52948 81.2749 11.174C80.5937 12.8185 80.4155 14.6281 80.7628 16.374C81.11 18.1198 81.9672 19.7235 83.2259 20.9821C84.4846 22.2408 86.0882 23.098 87.834 23.4452C89.5799 23.7925 91.3895 23.6143 93.034 22.9331C94.6785 22.2519 96.0841 21.0983 97.0731 19.6183C98.062 18.1383 98.5898 16.3982 98.5898 14.6182C98.5898 14.1582 98.5498 13.6982 98.4898 13.2582C97.9902 13.9588 97.33 14.5296 96.5645 14.9228C95.799 15.316 94.9504 15.5201 94.0898 15.5182C92.9451 15.5182 91.8298 15.1546 90.905 14.4798C89.9803 13.805 89.2937 12.854 88.9444 11.7638C88.5951 10.6736 88.6011 9.50059 88.9615 8.41402C89.322 7.32745 90.0182 6.38344 90.9498 5.71816C90.5098 5.65816 90.0498 5.61816 89.5898 5.61816Z" fill="white"/>
<defs>
<filter id="filter0_dd_344_55" x="42.8836" y="0.588369" width="31.1957" height="31.1957" filterUnits="userSpaceOnUse" color-interpolation-filters="sRGB">
<feFlood flood-opacity="0" result="BackgroundImageFix"/>
<feColorMatrix in="SourceAlpha" type="matrix" values="0 0 0 0 0 0 0 0 0 0 0 0 0 0 0 0 0 0 127 0" result="hardAlpha"/>
<feOffset dy="2.17647"/>
<feGaussianBlur stdDeviation="0.362745"/>
<feColorMatrix type="matrix" values="0 0 0 0 0 0 0 0 0 0 0 0 0 0 0 0 0 0 0.06 0"/>
<feBlend mode="normal" in2="BackgroundImageFix" result="effect1_dropShadow_344_55"/>
<feColorMatrix in="SourceAlpha" type="matrix" values="0 0 0 0 0 0 0 0 0 0 0 0 0 0 0 0 0 0 127 0" result="hardAlpha"/>
<feOffset dy="2.17647"/>
<feGaussianBlur stdDeviation="2.90196"/>
<feColorMatrix type="matrix" values="0 0 0 0 0 0 0 0 0 0 0 0 0 0 0 0 0 0 0.15 0"/>
<feBlend mode="normal" in2="effect1_dropShadow_344_55" result="effect2_dropShadow_344_55"/>
<feBlend mode="normal" in="SourceGraphic" in2="effect2_dropShadow_344_55" result="shape"/>
</filter>
<linearGradient id="paint0_linear_344_55" x1="51.5794" y1="1.00257" x2="78.1079" y2="9.82129" gradientUnits="userSpaceOnUse">
<stop stop-color="#FF56BB"/>
<stop offset="1" stop-color="#FF8F77"/>
</linearGradient>
</defs>
</svg>
