<svg width="21" height="21" viewBox="0 0 21 21" fill="none" xmlns="http://www.w3.org/2000/svg">
<path d="M16.1189 14.9627L20.4019 19.2447L18.9869 20.6597L14.7049 16.3767C13.1116 17.6539 11.1299 18.3486 9.08789 18.3457C4.11989 18.3457 0.0878906 14.3137 0.0878906 9.3457C0.0878906 4.3777 4.11989 0.345703 9.08789 0.345703C14.0559 0.345703 18.0879 4.3777 18.0879 9.3457C18.0908 11.3877 17.3961 13.3694 16.1189 14.9627ZM14.1129 14.2207C15.382 12.9156 16.0908 11.1661 16.0879 9.3457C16.0879 5.4777 12.9549 2.3457 9.08789 2.3457C5.21989 2.3457 2.08789 5.4777 2.08789 9.3457C2.08789 13.2127 5.21989 16.3457 9.08789 16.3457C10.9083 16.3486 12.6578 15.6398 13.9629 14.3707L14.1129 14.2207Z" fill="#F4F4F4"/>
</svg>
